# xmcd CD database file
#
# Track frame offsets:
#	150
#	18890
#	38570
#	62548
#
# Disc length: 1080 seconds
#
# Revision: 0
# Processed by: cddbd v1.5.1PL0 Copyright (c) Steve Scherf et al.
# Submitted via: CDex 1.51
#
DISCID=22043604
DTITLE=堀下さゆり - あじさい畑
DYEAR=2004
DGENRE=JPop
TTITLE0=あじさい畑
TTITLE1=privateroom(Caprocorn version)
TTITLE2=くずかご
TTITLE3=あじさい畑(Instrumental version)
EXTD=YEAR: 2004
EXTT0=
EXTT1=
EXTT2=
EXTT3=
PLAYORDER=
